<svg version="1.1"
     baseProfile="full"
     xmlns="http://www.w3.org/2000/svg"
     width="400" 
     height="600">
  <rect x="0" y="0" width="400" height="600" fill="black"/>
  <g transform="skewX(-10)">
    <text x="30" y="90" font-family="Helvetica" font-size="90" font-weight="bolder" fill="white" stroke="white" stroke-width="8">+4</text>
    <text x="30" y="90" font-family="Helvetica" font-size="90" font-weight="bolder" fill="white" stroke="black" stroke-width="3">+4</text>
  </g>
  <g transform="rotate(180 200 300) skewX(-10)">
    <text x="30" y="90" font-family="Helvetica" font-size="90" font-weight="bolder" fill="white" stroke="white" stroke-width="8">+4</text>
    <text x="30" y="90" font-family="Helvetica" font-size="90" font-weight="bolder" fill="white" stroke="black" stroke-width="3">+4</text>
  </g>
  <g transform="rotate(30 200 300)">
    <ellipse cx="200" cy="300" rx="150" ry="300" stroke="white" stroke-width="15" fill="white"/>
  </g>
  <g transform="skewX(-15) translate(120 -20)">
    <rect x="70"  y="270" rx="5" ry="5" width="80" height="120" stroke="black" stroke-width="10" fill="white"/>
    <rect x="85"  y="285" rx="3" ry="3" width="50" height="90"                                   fill="red"/>
    <rect x="130" y="210" rx="5" ry="5" width="80" height="120" stroke="black" stroke-width="10" fill="white"/>
    <rect x="145" y="225" rx="3" ry="3" width="50" height="90"                                   fill="#33F"/>
  </g>
  <g transform="skewX(-15) translate(160 20)">
    <rect x="70"  y="270" rx="5" ry="5" width="80" height="120" stroke="black" stroke-width="10" fill="white"/>
    <rect x="85"  y="285" rx="3" ry="3" width="50" height="90"                                   fill="gold"/>
    <rect x="130" y="210" rx="5" ry="5" width="80" height="120" stroke="black" stroke-width="10" fill="white"/>
    <rect x="145" y="225" rx="3" ry="3" width="50" height="90"                                   fill="#292"/>
  </g>
</svg> 