<svg version="1.1"
     baseProfile="full"
     xmlns="http://www.w3.org/2000/svg"
     width="600" 
     height="600">
  <g transform="rotate(-40 300 300)">
    <rect x="270.5" y="170" width="159.5" height="140.5" fill="black" />
    <rect x="170" y="289.5" width="130.5" height="140.5" fill="black" />
    <path d="M271 170 A 120 120, 0, 0, 0, 151 290 L 271 290 Z" fill="black"/>
    <path d="M300 430 A 120 120, 0, 0, 0, 420 310 L 300 310 Z" fill="black"/>
    <polygon points="400.5,120 453,120    597,240 453,360 400.5,360" fill="black" />
    <polygon points="170.5,240 118,240 -21.68,360 118,480 170.5,480" fill="black" />
  </g>
  <g transform="rotate(-40 300 300)">
    <rect x="299.5" y="190" width="150.5" height="100" fill="white" />
    <rect x="150" y="310" width="150.5" height="100" fill="white" />
    <path d="M300 190 A 100 100, 0, 0, 0, 200 290 L 300 290 Z" fill="white"/>
    <path d="M300 410 A 100 100, 0, 0, 0, 400 310 L 300 310 Z" fill="white"/>
    <polygon points="449.5,140  569.175,240 449.5,340" fill="white" />
    <polygon points="150.5,260   30.825,360 150.5,460" fill="white" />
  </g>
</svg> 